# xmcd
#
# Track frame offsets:
#	150
#	14037
#	31291
#	46862
#	62729
#	80916
#	99243
#	111849
#	130121
#	145604
#
# Disc length: 2131 seconds
#
# Revision: 0
# Processed by: cddbd v1.5.2PL0 Copyright (c) Steve Scherf et al.
# Submitted via: dBpowerAMP V4.0
#
DISCID=8108510a
DTITLE=Chancy Williams - Honkey Tonk Road
DYEAR=2008
DGENRE=Country
TTITLE0=Honkey Tonk Road
TTITLE1=Heart Like A Fist
TTITLE2=Makes Me Think Of You
TTITLE3=Let's Get Drunk and Fight
TTITLE4=This Ain't No Love Song
TTITLE5=Let It Burn
TTITLE6=Mr. One Night Do Ya Right
TTITLE7=Six Figure Job
TTITLE8=Half A Mile Away
TTITLE9=Country Music
EXTD=
EXTT0=
EXTT1=
EXTT2=
EXTT3=
EXTT4=
EXTT5=
EXTT6=
EXTT7=
EXTT8=
EXTT9=
PLAYORDER=
